<?xml version="1.0" encoding="utf-8"?>
<!-- Generator: Adobe Illustrator 19.2.1, SVG Export Plug-In . SVG Version: 6.00 Build 0)  -->
<svg version="1.1" id="Ebene_1" xmlns="http://www.w3.org/2000/svg" xmlns:xlink="http://www.w3.org/1999/xlink" x="0px" y="0px"
	 viewBox="0 0 595.3 170.2" style="enable-background:new 0 0 595.3 170.2;" xml:space="preserve">
<style type="text/css">
	.st0{fill:#9D9D9C;}
	.st1{font-family:'AvantGardeBQ-Book';}
	.st2{font-size:60px;}
	.st3{letter-spacing:3;}
	.st4{fill:#6FC3BA;}
	.st5{letter-spacing:-1;}
	.st6{font-family:'AvenirNext-Regular';}
	.st7{font-size:24px;}
	.st8{fill:#B2B2B2;}
	.st9{font-size:15px;}
	.st10{clip-path:url(#SVGID_2_);fill:#F59C00;}
</style>
<text transform="matrix(1 0 0 1 176.0088 104.8265)"><tspan x="0" y="0" class="st0 st1 st2">r</tspan><tspan x="16.8" y="0" class="st0 st1 st2 st3">e</tspan><tspan x="56" y="0" class="st0 st1 st2">i</tspan></text>
<polygon class="st4" points="262.3,106.2 262.3,106.2 283.3,55.7 304.2,106.5 304.3,106.4 329.5,44.3 325.4,44.2 304.3,96.9 
	283.2,45.8 283.2,45.9 262.2,97.2 241.5,44.2 237.5,44.2 "/>
<text transform="matrix(1 0 0 1 320.1465 105.1791)"><tspan x="0" y="0" class="st0 st1 st2 st5">o</tspan><tspan x="35.1" y="0" class="st0 st1 st2 st5">r</tspan><tspan x="50.2" y="0" class="st0 st1 st2">k</tspan></text>
<text transform="matrix(1 0 0 1 397.7251 105.1791)" class="st4 st6 st7"> </text>
<text transform="matrix(1 0 0 1 193.1587 129.6)"><tspan x="0" y="0" class="st8 st6 st9">BUILD UPON</tspan><tspan x="97.9" y="0" class="st8 st6 st9"> </tspan><tspan x="102.1" y="0" class="st8 st6 st9">A</tspan><tspan x="113.2" y="0" class="st8 st6 st9">WESOME </tspan><tspan x="189" y="0" class="st8 st6 st9">P</tspan><tspan x="197.6" y="0" class="st8 st6 st9">A</tspan><tspan x="208.6" y="0" class="st8 st6 st9">C</tspan><tspan x="220.1" y="0" class="st8 st6 st9">K</tspan><tspan x="230.1" y="0" class="st8 st6 st9">A</tspan><tspan x="241.1" y="0" class="st8 st6 st9">GE</tspan><tspan x="263.1" y="0" class="st8 st6 st9">S</tspan></text>
<g>
	<defs>
		<rect id="SVGID_1_" x="99.5" y="44" width="485.9" height="93.9"/>
	</defs>
	<clipPath id="SVGID_2_">
		<use xlink:href="#SVGID_1_"  style="overflow:visible;"/>
	</clipPath>
	<path class="st10" d="M178,63.5l4.4-2.7c-2.6-4.4-5.6-6.3-9.4-9.1c-3.8-2.9-7.1-4.1-12.5-5.9c-5.4-1.8-9.4-1.8-15.3-1.8
		c-9.3,0-16.2,2-23.7,6.1c-7.5,4.1-12.2,9.7-16.5,17c-4.3,7.3-5.6,14.2-5.3,22.8c0.4,13.2,5.8,21.4,15,30.3
		c7.6,6.5,17.2,10.5,31.1,10.5c9.1,0,16.5-2,23.6-5.5c4.3-2.6,7.3-5,9.5-7.2c4.7-4.4,5-6.9,5-6.9h-6l-0.2,0.2
		c-8.2,10.2-20.3,14.6-33.1,14.6c-7.1,0-14.2-2.3-19.9-5.5c-5.7-3.1-11.6-9.3-14.9-15c-3.3-5.7-4.4-12.7-4.4-19.1
		c0-9.9,3.6-17.4,10.1-24.8c6.4-7.4,18.6-12.7,29.3-12.7C158.2,48.9,170.2,53.2,178,63.5"/>
</g>
</svg>
